<?xml version="1.0" encoding="iso-8859-1"?>
<!-- Generator: Adobe Illustrator 19.0.0, SVG Export Plug-In . SVG Version: 6.00 Build 0)  -->
<svg version="1.1" id="Capa_1" xmlns="http://www.w3.org/2000/svg" xmlns:xlink="http://www.w3.org/1999/xlink" x="0px" y="0px"
	 viewBox="0 0 496 496" style="enable-background:new 0 0 496 496;" xml:space="preserve">
<g>
	<g>
		<g>
			<path d="M480,176v-32h-64v32H208v-32h-64v32h-16v64H96c-22.056,0-40,17.944-40,40v180c0,11.032-8.976,20-20,20s-20-8.968-20-20
				V96c0-13.232,10.768-24,24-24h168.808c3.248,15.944,16.04,28.384,32.104,31.28C244.232,117.416,256.872,128,272,128h22.016
				c1.76,0,3.528-0.152,5.264-0.44L448,102.776V64V25.224L299.288,0.44C297.544,0.152,295.776,0,294.016,0H272
				c-15.128,0-27.768,10.584-31.088,24.72c-16.064,2.896-28.856,15.336-32.104,31.28H40C17.944,56,0,73.944,0,96v364
				c0,19.848,16.152,36,36,36s36-16.152,36-36V280c0-13.232,10.768-24,24-24h32v240h368V176H480z M432,89.224l-135.36,22.56
				c-0.872,0.144-1.744,0.216-2.624,0.216H272c-6.416,0-11.92-3.816-14.464-9.272C272.432,99.056,284.112,87.12,287.192,72H336v16
				h16V72h16v16h16V72h16v16h16V72h16V89.224z M272,16h22.016c0.88,0,1.752,0.072,2.632,0.216L432,38.776V56h-16V40h-16v16h-16V40
				h-16v16h-16V40h-16v16h-48.808c-3.08-15.12-14.76-27.048-29.656-30.728C260.08,19.816,265.584,16,272,16z M248,40
				c13.232,0,24,10.768,24,24s-10.768,24-24,24s-24-10.768-24-24S234.768,40,248,40z M432,160h32v16h-32V160z M160,160h32v16h-32
				V160z M480,320h-16v16h16v16h-16v16h16v16h-16v16h16v16h-16v16h16v16h-16v16h16v16H144v-16h16v-16h-16v-16h16v-16h-16v-16h16v-16
				h-16v-16h16v-16h-16v-16h16v-16h-16v-32h336V320z M480,272H144v-80h64h208h64V272z"/>
			<rect x="416" y="224" width="48" height="16"/>
			<polygon points="192,208 176,208 176,224 160,224 160,240 176,240 176,256 192,256 192,240 208,240 208,224 192,224 			"/>
			<polygon points="327.696,387.616 394.056,461.352 405.944,450.648 328.304,364.384 304.28,388.416 229.92,306.616 
				218.08,317.384 303.72,411.584 			"/>
			<rect x="240" y="56" width="16" height="16"/>
		</g>
	</g>
</g>
<g>
</g>
<g>
</g>
<g>
</g>
<g>
</g>
<g>
</g>
<g>
</g>
<g>
</g>
<g>
</g>
<g>
</g>
<g>
</g>
<g>
</g>
<g>
</g>
<g>
</g>
<g>
</g>
<g>
</g>
</svg>
