<?xml version="1.0" encoding="iso-8859-1"?>
<!-- Generator: Adobe Illustrator 19.0.0, SVG Export Plug-In . SVG Version: 6.00 Build 0)  -->
<svg version="1.1" id="Capa_1" xmlns="http://www.w3.org/2000/svg" xmlns:xlink="http://www.w3.org/1999/xlink" x="0px" y="0px"
	 viewBox="0 0 496 496" style="enable-background:new 0 0 496 496;" xml:space="preserve">
<g>
	<g>
		<g>
			<rect x="8" y="400" width="32" height="16"/>
			<rect x="72" y="400" width="32" height="16"/>
			<rect x="136" y="400" width="32" height="16"/>
			<rect x="200" y="400" width="32" height="16"/>
			<rect x="264" y="400" width="32" height="16"/>
			<rect x="328" y="400" width="32" height="16"/>
			<rect x="392" y="400" width="32" height="16"/>
			<rect x="456" y="400" width="32" height="16"/>
			<path d="M496,208c0-92.632-75.36-168-168-168c-39.272,0-75.36,13.648-104,36.312V0h-16v90.648C178.352,120.96,160,162.36,160,208
				c0,92.632,75.36,168,168,168c41.376,0,79.24-15.104,108.552-40H496v-16h-43.136C479.584,290.24,496,251.048,496,208z M328,360
				c-83.816,0-152-68.184-152-152S244.184,56,328,56s152,68.184,152,152S411.816,360,328,360z"/>
			<path d="M328,72c-74.992,0-136,61.008-136,136s61.008,136,136,136s136-61.008,136-136S402.992,72,328,72z M336,327.592V296h-16
				v31.592C260.224,323.624,212.376,275.784,208.408,216H240v-16h-31.592C212.376,140.216,260.224,92.376,320,88.408V120h16V88.408
				C395.776,92.376,443.624,140.216,447.592,200H416v16h31.592C443.624,275.784,395.776,323.624,336,327.592z"/>
			<polygon points="64,0 48,0 48,320 0,320 0,336 64,336 			"/>
			<rect y="480" width="496" height="16"/>
			<path d="M394.344,130.344l-56.064,56.064C335.152,184.904,331.696,184,328,184c-13.232,0-24,10.768-24,24
				c0,3.696,0.904,7.152,2.408,10.28l-56.064,56.064l11.312,11.312l56.064-56.064c3.128,1.504,6.584,2.408,10.28,2.408
				c13.232,0,24-10.768,24-24c0-3.696-0.904-7.152-2.408-10.28l56.064-56.064L394.344,130.344z M328,216c-4.408,0-8-3.584-8-8
				s3.592-8,8-8c4.408,0,8,3.584,8,8S332.408,216,328,216z"/>
		</g>
	</g>
</g>
<g>
</g>
<g>
</g>
<g>
</g>
<g>
</g>
<g>
</g>
<g>
</g>
<g>
</g>
<g>
</g>
<g>
</g>
<g>
</g>
<g>
</g>
<g>
</g>
<g>
</g>
<g>
</g>
<g>
</g>
</svg>
